<svg xmlns="http://www.w3.org/2000/svg" width="64" height="64" viewBox="0 0 64 64" fill="none">
  <rect width="64" height="64" rx="14" fill="#ffffff"/>
  <defs>
    <linearGradient id="g" x1="20" y1="54" x2="48" y2="12" gradientUnits="userSpaceOnUse">
      <stop offset="0" stop-color="#1f7a4d"/>
      <stop offset="1" stop-color="#7ac043"/>
    </linearGradient>
  </defs>
  <g transform="translate(2 2) scale(0.94)">
    <path d="M13 54 L13 23 L33 11 M13 54 L53 54 M53 54 L53 29" stroke="#1e3a5f" stroke-width="4.5" stroke-linecap="round" stroke-linejoin="round"/>
    <rect x="20" y="42" width="6" height="12" rx="1.6" fill="url(#g)"/>
    <rect x="29" y="34" width="6" height="20" rx="1.6" fill="url(#g)"/>
    <rect x="38" y="28" width="6" height="26" rx="1.6" fill="url(#g)"/>
    <path d="M18 47 C 27 45 33 37 41 28 S 50 17 53 13" stroke="url(#g)" stroke-width="4.5" stroke-linecap="round" stroke-linejoin="round" fill="none"/>
    <path d="M53 13 L45 13 M53 13 L53 21" stroke="url(#g)" stroke-width="4.5" stroke-linecap="round" stroke-linejoin="round"/>
  </g>
</svg>
